<svg className="absolute right-4 top-[50%] translate-y-[-50%]" width="55" height="53" viewBox="0 0 55 53" fill="none" xmlns="http://www.w3.org/2000/svg">
    <path d="M54.5 26.5C54.5 40.8421 42.4293 52.5 27.5 52.5C12.5707 52.5 0.5 40.8421 0.5 26.5C0.5 12.1579 12.5707 0.5 27.5 0.5C42.4293 0.5 54.5 12.1579 54.5 26.5Z" fill="#C51F1F" stroke="#AEAEAE"/>
    <path d="M26.9393 40.0607C27.5251 40.6464 28.4749 40.6464 29.0607 40.0607L38.6066 30.5147C39.1924 29.9289 39.1924 28.9792 38.6066 28.3934C38.0208 27.8076 37.0711 27.8076 36.4853 28.3934L28 36.8787L19.5147 28.3934C18.9289 27.8076 17.9792 27.8076 17.3934 28.3934C16.8076 28.9792 16.8076 29.9289 17.3934 30.5147L26.9393 40.0607ZM26.5 13L26.5 39L29.5 39L29.5 13L26.5 13Z" fill="white"/>
</svg>
