<svg width="55" height="53" viewBox="0 0 55 53" fill="none" xmlns="http://www.w3.org/2000/svg">
    <path d="M54.5 26.5C54.5 40.8421 42.4293 52.5 27.5 52.5C12.5707 52.5 0.5 40.8421 0.5 26.5C0.5 12.1579 12.5707 0.5 27.5 0.5C42.4293 0.5 54.5 12.1579 54.5 26.5Z" fill="#1EBF4C" stroke="#22A447"/>
    <path d="M29.0607 14.9393C28.4749 14.3536 27.5251 14.3536 26.9393 14.9393L17.3934 24.4853C16.8076 25.0711 16.8076 26.0208 17.3934 26.6066C17.9792 27.1924 18.9289 27.1924 19.5147 26.6066L28 18.1213L36.4853 26.6066C37.0711 27.1924 38.0208 27.1924 38.6066 26.6066C39.1924 26.0208 39.1924 25.0711 38.6066 24.4853L29.0607 14.9393ZM29.5 39L29.5 16H26.5L26.5 39H29.5Z" fill="#F1F1F1"/>
</svg>